<?xml version="1.0" standalone="no"?>
<!DOCTYPE svg PUBLIC "-//W3C//DTD SVG 20010904//EN"
 "http://www.w3.org/TR/2001/REC-SVG-20010904/DTD/svg10.dtd">
<svg version="1.0" xmlns="http://www.w3.org/2000/svg"
 width="360.000000pt" height="360.000000pt" viewBox="0 0 360.000000 360.000000"
 preserveAspectRatio="xMidYMid meet">

<g transform="translate(0.000000,360.000000) scale(0.100000,-0.100000)"
fill="#000000" stroke="none">
<path d="M1159 3572 c-76 -49 -73 -37 -65 -282 4 -120 4 -361 0 -536 l-7 -316
-411 3 c-456 4 -458 4 -608 -65 l-73 -33 545 -7 c300 -5 546 -9 547 -10 3 -3
-13 -621 -23 -904 l-6 -184 -407 4 c-450 3 -446 4 -589 -65 l-67 -32 528 -5
529 -5 -1 -155 c-1 -85 -8 -312 -16 -505 -8 -192 -15 -378 -15 -412 l0 -62 30
9 c44 13 87 41 99 64 9 19 16 184 37 849 l7 207 142 0 c161 0 742 -16 913 -26
l113 -6 -1 -152 c-1 -83 -8 -297 -15 -476 -8 -179 -15 -357 -15 -397 l0 -72
30 9 c40 11 84 39 97 60 7 10 16 148 22 351 6 184 14 411 17 506 l6 172 77 -5
c42 -3 173 -12 291 -20 432 -30 405 -30 490 3 41 17 112 43 158 58 46 15 82
28 80 30 -6 6 -426 26 -756 35 -185 6 -337 12 -340 14 -6 7 14 1066 21 1072 3
3 90 1 194 -5 103 -6 231 -14 283 -17 52 -3 135 -9 183 -15 88 -9 90 -9 175
25 48 18 120 44 160 57 39 13 72 26 72 29 0 7 -38 9 -585 30 -154 6 -326 13
-383 16 l-102 6 6 594 c5 356 4 594 -2 594 -13 0 -75 -38 -101 -63 l-23 -20 0
-555 0 -554 -217 6 c-120 3 -324 8 -453 11 -129 3 -299 8 -378 11 l-143 6 7
579 c5 370 4 579 -2 579 -6 0 -30 -13 -55 -28z m658 -1258 c204 -4 418 -9 475
-13 l103 -6 -3 -165 c-2 -181 -23 -914 -26 -916 0 0 -185 5 -411 12 -225 7
-491 13 -589 13 l-179 1 6 78 c4 42 8 255 9 472 1 217 3 428 6 469 l4 73 116
-6 c65 -3 284 -9 489 -12z"/>
<path d="M1630 2207 c-365 -125 -354 -673 17 -854 75 -37 82 -38 183 -38 99 0
110 2 172 33 150 73 228 204 229 381 1 174 -83 331 -225 423 -120 77 -254 97
-376 55z m264 -92 c158 -41 243 -166 234 -344 -6 -107 -41 -183 -117 -254 -77
-72 -145 -100 -243 -99 -130 0 -212 54 -279 182 -20 38 -24 60 -24 140 0 86 3
101 31 160 57 117 140 187 259 216 67 16 72 16 139 -1z"/>
<path d="M420 3480 c-308 -64 -427 -444 -225 -719 167 -227 477 -264 652 -78
137 144 159 336 63 532 -91 186 -307 302 -490 265z m244 -121 c70 -26 139 -92
173 -165 100 -220 -60 -498 -301 -521 -258 -24 -421 247 -300 496 83 169 267
251 428 190z"/>
<path d="M2162 3359 l-63 -8 -91 -96 c-50 -53 -100 -108 -111 -122 l-21 -26
-121 129 -122 129 -59 -19 c-32 -10 -68 -25 -81 -33 -22 -15 -22 -15 48 -85
38 -39 104 -108 146 -154 l76 -84 -41 -48 c-92 -105 -252 -301 -252 -307 0 -9
150 2 178 13 11 4 62 57 115 119 l95 112 102 -125 c57 -68 111 -124 120 -124
24 0 123 30 137 42 14 11 -24 64 -164 230 -46 54 -83 100 -83 103 0 5 86 107
242 287 32 36 58 69 58 72 0 7 -25 6 -108 -5z"/>
<path d="M3355 3359 l-60 -8 -115 -121 -115 -121 -119 126 c-109 116 -122 126
-148 121 -40 -8 -128 -47 -128 -57 0 -4 34 -43 76 -86 42 -43 105 -111 141
-150 l65 -73 -18 -23 c-11 -13 -76 -92 -146 -176 -71 -83 -128 -154 -128 -158
0 -7 153 5 178 15 10 4 50 43 88 87 112 129 117 135 125 135 5 0 52 -54 106
-121 108 -134 99 -129 203 -99 63 18 68 25 40 62 -19 27 -175 219 -226 279
-12 13 6 38 136 190 82 96 150 177 150 182 0 8 -23 8 -105 -4z"/>
<path d="M3365 2099 l-70 -9 -115 -121 -114 -122 -121 128 -121 128 -55 -18
c-29 -10 -67 -24 -82 -32 l-28 -14 146 -151 c80 -84 145 -155 145 -159 0 -3
-57 -73 -126 -155 -69 -82 -135 -162 -147 -178 l-21 -29 87 6 c48 3 93 10 101
14 12 7 49 48 180 201 11 12 23 22 26 22 4 0 51 -54 105 -120 70 -85 105 -120
120 -120 25 0 114 26 134 39 17 11 -12 51 -161 229 l-88 104 29 37 c16 20 67
79 113 131 103 118 158 185 158 194 0 7 2 7 -95 -5z"/>
<path d="M1656 979 c-63 -15 -155 -69 -197 -117 -126 -144 -141 -374 -35 -555
33 -55 139 -158 192 -185 218 -111 468 -35 565 173 63 134 61 274 -7 413 -100
204 -317 318 -518 271z m306 -132 c106 -62 163 -167 163 -297 -1 -64 -6 -86
-34 -147 -64 -139 -190 -226 -327 -227 -63 0 -80 4 -140 34 -58 30 -76 45
-111 97 -84 127 -82 278 7 410 46 69 94 108 169 140 47 20 69 23 142 20 71 -2
93 -8 131 -30z"/>
<path d="M2898 976 c-304 -82 -392 -491 -161 -747 188 -208 492 -212 653 -8
199 252 46 670 -275 754 -70 18 -152 18 -217 1z m309 -124 c60 -31 111 -86
142 -151 22 -48 26 -70 26 -146 0 -80 -4 -97 -32 -157 -127 -270 -470 -300
-601 -53 -24 45 -27 61 -27 155 0 99 2 109 33 172 39 81 120 158 195 187 71
29 202 25 264 -7z"/>
<path d="M245 956 c-33 -13 -68 -27 -77 -31 -15 -6 3 -30 104 -139 67 -72 133
-143 146 -158 l25 -27 -109 -128 c-134 -157 -184 -219 -184 -228 0 -4 28 -5
63 -1 128 14 120 9 224 130 53 61 99 112 102 113 3 1 51 -54 106 -123 95 -118
102 -124 130 -118 48 9 124 35 130 44 5 9 -137 192 -211 272 -24 26 -44 50
-44 53 0 5 164 201 180 215 22 19 120 143 116 147 -2 2 -37 1 -78 -2 l-73 -7
-122 -122 -122 -121 -123 127 -123 128 -60 -24z"/>
</g>
</svg>
